#!OML:ASF H:\Terrain\Patient Classification 1\Walking\liu\liu.ASF
:FULLY-SPECIFIED
:DEGREES
237
root 9.86435 16.932 12.1568 7.96129 7.06551 5.09257
lowerback -3.30513 -4.48961 -7.74815
upperback 0.198602 -5.71208 1.40883
thorax 2.96249 -2.97941 5.41998
lowerneck -17.9302 -3.23376 -13.4506
upperneck 19.9172 -4.17984 14.7895
head 9.87649 -1.34986 6.997
rclavicle 5.31252e-014 2.22639e-014
rhumerus -50.5871 10.8933 -81.7303
rradius 32.1603
rwrist -18.267
rhand -29.418 -20.5762
rfingers 7.12502
rthumb -2.75536 -50.5381
lclavicle 5.31252e-014 2.22639e-014
lhumerus -11.486 -25.1301 83.4289
lradius 34.5395
lwrist 9.98454
lhand -13.48 -25.7691
lfingers 7.12502
lthumb 12.6305 3.82903
rfemur -42.145 2.55829 11.6961
rtibia 38.0742
rfoot -21.0772 -8.1878
rtoes -18.752
lfemur 0.674635 1.83501 -28.964
ltibia 13.1367
lfoot -18.561 -0.587342
ltoes -2.66985
238
root 9.86443 16.9168 12.3504 7.94967 7.39842 5.63533
lowerback -3.22808 -4.66508 -8.17294
upperback 0.155276 -5.93094 1.18873
thorax 2.92791 -3.08936 5.41417
lowerneck -17.6626 -3.11087 -13.3853
upperneck 19.8607 -4.07187 14.8721
head 9.78777 -1.29506 7.02569
rclavicle -7.01213e-014 1.59028e-014
rhumerus -51.2034 10.2278 -81.133
rradius 32.1087
rwrist -18.4326
rhand -31.6254 -19.2306
rfingers 7.12502
rthumb -4.88706 -49.1543
lclavicle -7.01213e-014 1.59028e-014
lhumerus -10.9255 -25.5602 82.9007
lradius 34.9639
lwrist 10.114
lhand -13.3801 -25.6052
lfingers 7.12502
lthumb 12.7268 3.98696
rfemur -42.576 3.05812 10.4648
rtibia 36.369
rfoot -21.4147 -7.82085
rtoes -17.1182
lfemur 2.95286 1.87868 -29.3698
ltibia 10.3984
lfoot -17.883 -0.724917
ltoes -1.7109
239
root 9.86637 16.9036 12.5455 8.02926 7.84287 6.09424
lowerback -3.40862 -4.94545 -8.52265
upperback 0.335663 -6.26302 1.02744
thorax 3.29075 -3.27746 5.3819
lowerneck -17.8073 -3.02454 -13.3495
upperneck 19.5823 -3.93997 14.9786
head 9.69791 -1.21423 7.06532
rclavicle 3.2551e-014 1.59028e-015
rhumerus -51.4123 9.80493 -80.6904
rradius 32.0892
rwrist -18.6001
rhand -30.5079 -21.4973
rfingers 7.12502
rthumb -3.80789 -51.4431
lclavicle 3.2551e-014 1.59028e-015
lhumerus -9.82859 -25.6799 82.1294
lradius 35.1963
lwrist 10.2047
lhand -13.3494 -25.6289
lfingers 7.12502
lthumb 12.7564 3.96144
rfemur -43.0614 3.64026 9.18712
rtibia 34.801
rfoot -21.5417 -7.73852
rtoes -16.4396
lfemur 5.69945 1.56019 -29.6931
ltibia 6.55198
lfoot -16.7901 -0.509021
ltoes -1.42131
240
root 9.86215 16.8833 12.7451 8.1368 8.15451 6.31769
lowerback -3.85508 -5.19484 -8.73599
upperback 0.618307 -6.53089 0.960629
thorax 3.89894 -3.44539 5.34491
lowerneck -18.1212 -3.01182 -13.2554
upperneck 19.274 -3.86181 14.8992
head 9.63389 -1.16756 7.01712
rclavicle 4.42296e-015 9.93923e-015
rhumerus -51.428 9.44835 -80.3479
rradius 32.0165
rwrist -18.9081
rhand -29.9003 -23.5104
rfingers 7.12502
rthumb -3.22116 -53.4658
lclavicle 4.42296e-015 9.93923e-015
lhumerus -8.3831 -25.6092 81.2952
lradius 35.0916
lwrist 10.3508
lhand -13.5246 -25.5201
lfingers 7.12502
lthumb 12.5874 4.0807
rfemur -43.6327 4.7887 7.92641
rtibia 33.4134
rfoot -22.0932 -7.94734
rtoes -16.9779
lfemur 9.7228 1.38613 -29.7736
ltibia 0
lfoot -14.2673 -0.329132
ltoes -0.935681
241
root 9.85249 16.8588 12.948 8.16441 8.32553 6.27231
lowerback -4.11482 -5.32058 -8.65375
upperback 0.643817 -6.675 0.907861
thorax 4.07925 -3.52117 5.20241
lowerneck -17.8916 -2.84554 -13.1474
upperneck 19.0808 -3.65597 14.8551
head 9.48628 -1.07555 6.99607
rclavicle -9.88954e-014 -5.56597e-015
rhumerus -51.9203 8.99556 -80.0746
rradius 31.8502
rwrist -19.1038
rhand -30.9799 -23.6699
rfingers 7.12502
rthumb -4.26373 -53.6069
lclavicle -9.88954e-014 -5.56597e-015
lhumerus -7.57048 -26.106 80.6465
lradius 35.1547
lwrist 11.1173
lhand -13.6636 -25.2786
lfingers 7.12502
lthumb 12.4535 4.3304
rfemur -44.2371 6.59336 6.662
rtibia 32.2217
rfoot -23.055 -8.88615
rtoes -17.8609
lfemur 10.3646 1.38074 -29.496
ltibia 3.18055e-015
lfoot -14.6943 -0.517763
ltoes -0.514432
242
root 9.84644 16.8292 13.1452 8.39476 8.49221 6.66816
lowerback -4.35618 -5.51832 -8.96797
upperback 0.522441 -6.89614 0.741346
thorax 4.13981 -3.63217 5.15828
lowerneck -17.5183 -2.63864 -12.9622
upperneck 18.9476 -3.43633 14.8059
head 9.32945 -0.976831 6.9617
rclavicle 5.06901e-015 -6.75868e-015
rhumerus -52.6983 8.73125 -79.9239
rradius 32.0565
rwrist -19.1677
rhand -30.8964 -23.9024
rfingers 7.12502
rthumb -4.18313 -53.8411
lclavicle 5.06901e-015 -6.75868e-015
lhumerus -7.0707 -26.3057 80.0776
lradius 35.3481
lwrist 11.4572
lhand -13.6937 -25.3971
lfingers 7.12502
lthumb 12.4245 4.21368
rfemur -45.0635 8.57029 4.57574
rtibia 31.192
rfoot -24.2063 -10.2259
rtoes -17.1185
lfemur 10.9167 1.30396 -29.7484
ltibia 4.77083e-014
lfoot -15.1957 -0.513678
ltoes -1.36103
243
root 9.8415 16.7984 13.3425 8.66517 8.76589 7.04659
lowerback -4.65712 -5.80692 -9.29587
upperback 0.516732 -7.22624 0.611328
thorax 4.38136 -3.80858 5.12996
lowerneck -17.3746 -2.47578 -12.7695
upperneck 18.7481 -3.25283 14.782
head 9.20065 -0.884023 6.93026
rclavicle -2.72335e-014 1.31198e-014
rhumerus -53.2051 8.51397 -79.6791
rradius 32.235
rwrist -19.2348
rhand -30.7692 -23.5142
rfingers 7.12502
rthumb -4.06026 -53.4553
lclavicle -2.72335e-014 1.31198e-014
lhumerus -6.39671 -25.9327 79.4661
lradius 35.4634
lwrist 11.0378
lhand -13.6418 -25.6004
lfingers 7.12502
lthumb 12.4745 4.00733
rfemur -45.9526 10.6667 2.27401
rtibia 30.3477
rfoot -25.6055 -11.9791
rtoes -15.0896
lfemur 11.5177 1.11943 -30.0028
ltibia -3.18055e-015
lfoot -15.7955 -0.267584
ltoes -2.36763
244
root 9.83205 16.7657 13.5506 8.67036 9.12385 6.8707
lowerback -4.8744 -6.04317 -9.10538
upperback 0.645825 -7.52594 0.63318
thorax 4.66726 -3.96719 4.97812
lowerneck -17.5594 -2.33214 -12.6377
upperneck 18.6836 -3.06512 14.8038
head 9.18133 -0.777942 6.9383
rclavicle 4.34841e-014 5.1684e-015
rhumerus -53.3519 8.13053 -79.2159
rradius 31.9687
rwrist -19.1923
rhand -31.1932 -21.8498
rfingers 7.12502
rthumb -4.46969 -51.7826
lclavicle 4.34841e-014 5.1684e-015
lhumerus -5.56824 -25.7098 78.8078
lradius 35.4835
lwrist 10.5707
lhand -13.2092 -25.6352
lfingers 7.12502
lthumb 12.8916 3.94658
rfemur -46.6964 13.1119 0.44911
rtibia 29.6857
rfoot -27.4049 -14.6645
rtoes -15.5776
lfemur 12.3035 0.94992 -29.5954
ltibia 1.90833e-014
lfoot -16.2749 -0.244464
ltoes -2.33422
245
root 9.82598 16.7236 13.7598 8.66551 9.44875 7.08188
lowerback -4.97386 -6.25005 -9.29241
upperback 0.746959 -7.77515 0.620849
thorax 4.89504 -4.1062 5.01427
lowerneck -17.9525 -2.34974 -12.7032
upperneck 18.7579 -3.03399 14.803
head 9.27642 -0.755084 6.96321
rclavicle -3.06625e-014 -1.51076e-014
rhumerus -53.4824 7.62807 -78.531
rradius 31.7695
rwrist -18.9059
rhand -30.2578 -20.8857
rfingers 7.12502
rthumb -3.56638 -50.8357
lclavicle -3.06625e-014 -1.51076e-014
lhumerus -4.72553 -25.3705 78.3725
lradius 35.406
lwrist 10.0163
lhand -12.5784 -25.5868
lfingers 7.12502
lthumb 13.4996 3.9557
rfemur -47.4106 15.0093 -1.5297
rtibia 29.2112
rfoot -29.4198 -17.3005
rtoes -18.4134
lfemur 13.0886 0.767171 -29.5801
ltibia 3.81667e-014
lfoot -16.7095 -0.59921
ltoes -1.05587
246
root 9.82126 16.6785 13.9603 8.92238 9.61917 7.60776
lowerback -5.21938 -6.43383 -9.71055
upperback 0.747737 -7.9601 0.489631
thorax 5.10484 -4.21238 5.04873
lowerneck -17.8997 -2.34978 -12.8171
upperneck 18.5291 -3.0024 14.8772
head 9.18621 -0.742615 7.00326
rclavicle -5.96851e-014 -9.14409e-015
rhumerus -53.7622 6.90205 -77.8471
rradius 31.6693
rwrist -18.4492
rhand -28.9634 -21.1846
rfingers 7.12502
rthumb -2.31632 -51.1518
lclavicle -5.96851e-014 -9.14409e-015
lhumerus -4.08339 -24.9761 78.02
lradius 35.4592
lwrist 9.75647
lhand -12.3147 -25.4993
lfingers 7.12502
lthumb 13.7537 4.02613
rfemur -48.358 16.3111 -3.63328
rtibia 28.9128
rfoot -31.026 -19.064
rtoes -19.6573
lfemur 13.6402 0.656125 -29.9336
ltibia -9.54166e-015
lfoot -17.0671 -0.944019
ltoes 0.233292
247
root 9.8118 16.6411 14.1643 9.2566 9.81506 7.94644
lowerback -5.57172 -6.61848 -9.89636
upperback 0.676971 -8.14845 0.316026
thorax 5.26052 -4.30806 4.90367
lowerneck -17.3594 -2.14629 -12.7292
upperneck 18.2259 -2.79302 14.9678
head 8.94854 -0.647012 7.0244
rclavicle -1.07244e-013 -1.94809e-014
rhumerus -54.2061 6.28867 -77.4662
rradius 31.6175
rwrist -18.251
rhand -28.6266 -21.3274
rfingers 7.12502
rthumb -1.99111 -51.2979
lclavicle -1.07244e-013 -1.94809e-014
lhumerus -3.62133 -24.4622 77.6329
lradius 35.5031
lwrist 9.41158
lhand -11.9572 -25.3925
lfingers 7.12502
lthumb 14.0982 4.10923
rfemur -49.2581 17.235 -5.27821
rtibia 28.7154
rfoot -31.9502 -20.6207
rtoes -14.8947
lfemur 14.1286 0.52323 -30.0828
ltibia -3.81667e-014
lfoot -17.3282 -1.0119
ltoes -0.14037
248
root 9.80184 16.5994 14.3726 9.47551 10.0744 8.24339
lowerback -5.7961 -6.79686 -10.106
upperback 0.644538 -8.34237 0.233356
thorax 5.40331 -4.41047 4.87522
lowerneck -17.7356 -2.21422 -12.5206
upperneck 18.7226 -2.88098 14.6463
head 9.19374 -0.693656 6.88638
rclavicle -1.8487e-014 3.37934e-014
rhumerus -54.4645 5.84237 -76.951
rradius 31.46
rwrist -18.1301
rhand -28.4632 -21.6611
rfingers 7.12502
rthumb -1.8333 -51.6329
lclavicle -1.8487e-014 3.37934e-014
lhumerus -3.04665 -23.8113 77.4324
lradius 35.3385
lwrist 8.63357
lhand -11.5463 -25.4659
lfingers 7.12502
lthumb 14.4942 4.00789
rfemur -49.6597 16.8229 -5.77292
rtibia 28.4742
rfoot -32.3613 -21.3741
rtoes -14.4028
lfemur 14.727 0.34831 -30.1584
ltibia -9.54166e-015
lfoot -17.5091 -1.14283
ltoes -0.343669
